<?xml version="1.0" encoding="utf-8"?>
<svg xmlns="http://www.w3.org/2000/svg" viewBox="0 0 600 600" width="600px" height="600px" xmlns:bx="https://boxy-svg.com">
  <defs>
    <linearGradient id="color-0" bx:pinned="true" gradientUnits="userSpaceOnUse" gradientTransform="matrix(1.219724, 0, 0, 0.890391, -4851.437498, -201.016742)">
      <stop style="stop-color: rgb(157, 53, 67);"/>
    </linearGradient>
    <bx:grid x="0" y="0" width="376.383" height="254.252"/>
  </defs>
  <g transform="matrix(1, 0, 0, 1, -0.325394, -1.23311)">
    <path opacity="1.000000" stroke="none" d="M 92.926 408.225 C 92.926 408.225 110.981 389.284 107.247 394.858 C 113.932 400.937 120.561 406.91 127.109 412.956 C 128.557 414.298 129.445 414.366 131.412 413.316 C 134.419 411.716 137.896 410.469 141.327 409.982 C 148.876 408.912 154.897 411.964 160.142 416.763 C 189.209 443.351 218.404 469.821 247.359 496.509 C 251.364 500.197 254.283 504.864 257.706 509.079 C 257.706 512.257 257.706 515.436 257.418 519.031 C 255.451 522.187 254.3 525.373 252.013 527.584 C 244.08 535.261 235.644 542.511 227.607 550.105 C 223.522 553.961 219.259 557.437 213.726 559.41 C 210.239 559.41 206.754 559.41 202.811 559.147 C 199.157 557.184 195.391 556.005 192.847 553.703 C 161.814 525.635 130.916 497.442 100.09 469.183 C 92.142 461.901 91.518 452.099 97.779 443.669 C 98.267 443.011 98.083 441.287 97.475 440.705 C 90.854 434.401 84.089 428.226 77.973 422.577" style="fill: url(&quot;#color-0&quot;); transform-origin: 167.84px 476.621px;" transform="matrix(0.139173, 0.990268, -0.990268, 0.139173, -0.000027, -0.00002)">
      <title>magnif</title>
    </path>
    <path opacity="1.000000" stroke="none" d="M 318.882 25.57 C 348.342 24.47 376.922 27.07 404.722 35.67 C 451.472 50.07 486.582 78.37 507.612 123.17 C 520.012 149.57 525.572 177.57 526.912 206.47 C 528.492 240.57 525.482 274.07 513.792 306.27 C 496.602 353.77 464.892 387.27 417.732 405.87 C 384.632 418.97 350.192 422.37 315.002 420.87 C 290.902 419.87 267.329 415.87 244.699 407.47 C 202.129 391.47 170.663 363.37 151.777 321.77 C 134.985 284.67 130.574 245.57 132.578 205.47 C 133.661 183.77 137.187 162.47 144.317 141.87 C 160.208 95.97 189.879 62.77 234.649 43.27 C 261.379 31.57 289.452 26.67 318.882 25.57 M 433.732 185.47 C 430.562 177.17 428.172 168.37 424.072 160.57 C 411.732 136.87 392.152 121.97 365.612 119.17 C 345.672 117.07 325.372 117.57 305.252 117.97 C 272.189 118.67 248.189 134.37 233.489 164.07 C 225.199 180.77 222.159 198.77 221.739 217.17 C 221.229 239.77 224.179 261.67 234.989 281.87 C 249.219 308.37 271.439 323.27 301.652 324.57 C 320.092 325.47 338.632 325.47 357.072 324.67 C 387.872 323.47 410.782 308.57 424.692 281.17 C 440.062 250.97 440.742 218.87 433.732 185.47 Z" style="fill: url(&quot;#color-0&quot;); transform-origin: 329.715px 223.265px;">
      <title>o1</title>
    </path>
    <path fill-rule="nonzero" d="M 215.759 233.18 C 212.664 233.18 210.157 231.614 210.157 229.679 C 210.157 227.747 212.664 226.179 215.759 226.179 L 262.485 226.179 L 271.155 214.779 C 272.475 213.035 275.804 212.29 278.596 213.113 C 279.875 213.491 280.871 214.157 281.395 214.968 L 291.858 229.169 L 312.501 147.421 C 312.97 145.521 315.819 144.21 318.864 144.511 C 321.459 144.754 323.355 146.088 323.575 147.654 L 323.59 147.654 L 339.323 259.938 L 357.431 190.423 C 357.927 188.523 360.797 187.234 363.843 187.545 C 366.239 187.789 368.032 188.956 368.442 190.368 L 385.03 245.548 L 406.036 214.501 C 407.231 212.724 410.504 211.891 413.344 212.635 C 414.696 212.991 415.703 213.646 416.264 214.413 L 416.276 214.413 L 424.756 226.179 L 483.552 226.179 C 486.652 226.179 489.162 227.747 489.162 229.679 C 489.162 231.614 486.652 233.18 483.552 233.18 L 421.146 233.18 L 421.146 233.169 C 419.017 233.169 416.978 232.403 416.047 231.114 L 411.334 224.569 L 388.211 258.748 C 387.558 259.87 386 260.759 383.983 260.992 C 380.953 261.348 378.032 260.104 377.466 258.204 L 363.336 211.202 L 343.225 288.405 C 342.989 290.072 340.875 291.438 338.13 291.582 C 335.05 291.749 332.335 290.327 332.07 288.394 L 316.414 176.655 L 300.027 241.537 C 299.788 242.692 298.632 243.737 296.812 244.248 C 294.011 245.047 290.698 244.281 289.418 242.537 L 276.138 224.502 L 271.234 230.947 C 270.394 232.292 268.322 233.18 266.013 233.18 L 215.759 233.18 Z" style="fill: url(&quot;#color-0&quot;); vector-effect: non-scaling-stroke; stroke: url(&quot;#color-0&quot;); stroke-miterlimit: 2.76; stroke-linecap: round; stroke-linejoin: round; stroke-width: 3px;">
      <title>heartbeat</title>
    </path>
  </g>
</svg>