<?xml version="1.0" encoding="utf-8"?>
<svg version="1.1" id="Layer_1" xmlns="http://www.w3.org/2000/svg" x="0px" y="0px" width="100%" viewBox="0 0 3034.983 667.242" enable-background="new 0 0 3166 660" xmlns:bx="https://boxy-svg.com">
  <defs>
    <linearGradient id="color-0" bx:pinned="true" gradientUnits="userSpaceOnUse" gradientTransform="matrix(1.287888, 0, 0, 1, -3377.303552, 0.740598)">
      <stop style="stop-color: rgb(157, 53, 67);"/>
    </linearGradient>
    <bx:export>
      <bx:file format="svg" path="Sans titre.svg"/>
    </bx:export>
  </defs>
  <path opacity="1.000000" stroke="none" d=" M58.907593,332.029358 C71.268288,275.540222 83.570435,219.469345 95.832146,163.389648 C104.753059,122.589302 113.617500,81.776611 122.514618,40.971054 C124.247871,33.021702 126.015579,25.079868 127.833832,16.833212 C129.745224,16.833212 131.392120,16.833212 133.039017,16.833212 C190.034164,16.833216 247.029404,16.871666 304.024292,16.747919 C307.881195,16.739544 309.348114,17.757875 310.140717,21.683229 C322.326385,82.032906 334.698059,142.345032 347.034882,202.664169 C351.390411,223.959915 355.762878,245.252197 360.152283,266.540985 C360.380341,267.646973 360.840454,268.705109 361.503265,270.739319 C378.703339,185.545349 395.707031,101.323982 412.729034,17.011961 C473.268433,17.011961 533.395813,17.011961 594.072510,17.011961 C628.811951,175.817368 663.549927,334.616119 698.379517,493.833618 C664.985962,493.833618 632.071838,493.833618 598.565125,493.833618 C596.485291,484.773132 594.263062,475.490967 592.231445,466.167297 C586.014282,437.634796 579.907227,409.078308 573.690613,380.545685 C559.810425,316.838745 545.906860,253.136887 531.977173,189.440735 C526.375366,163.825180 520.612000,138.244629 515.119568,112.605873 C514.480530,109.623108 513.317383,108.860580 510.514709,108.945801 C504.692200,109.122856 498.860565,108.999290 492.369293,108.999290 C466.309479,237.325821 440.249969,365.650848 414.151672,494.166809 C404.141632,494.166809 394.831238,494.166779 385.520844,494.166779 C361.522888,494.166779 337.523682,494.040497 313.528107,494.280884 C309.102936,494.325195 307.205261,493.347778 306.286713,488.726746 C296.679108,440.394287 286.835754,392.108734 277.045197,343.812683 C267.254089,295.513977 257.454865,247.216934 247.647430,198.921555 C241.604950,169.166183 235.540421,139.415298 229.420624,109.342110 C222.292953,109.342110 215.195526,109.342110 207.399368,109.342110 C206.326218,113.968964 205.133514,118.983963 204.002960,124.012932 C201.839920,133.634659 199.685989,143.258560 197.577698,152.892395 C195.683243,161.549072 193.874100,170.224411 191.992508,178.883926 C189.898880,188.519302 187.755295,198.143784 185.653183,207.777328 C183.754150,216.480240 181.901688,225.193359 179.992233,233.893982 C177.868637,243.570251 175.664963,253.229065 173.568573,262.911163 C171.719574,271.450562 170.070923,280.034149 168.155289,288.558136 C164.521271,304.728180 160.639725,320.843231 157.089203,337.031189 C154.310257,349.701202 152.028015,362.480103 149.250336,375.150421 C145.654465,391.552887 141.662415,407.868530 138.072098,424.272156 C135.073227,437.973450 132.447083,451.755981 129.578949,465.486450 C127.772270,474.135468 125.962830,482.790314 123.781990,491.347565 C123.472237,492.563019 121.062866,494.017426 119.601845,494.043427 C107.440041,494.259644 95.272751,494.166687 83.107117,494.166779 C65.275299,494.166901 47.443489,494.166779 29.611673,494.166779 C27.805712,494.166779 25.999752,494.166779 23.363621,494.166779 C35.268940,439.882416 47.050327,386.163147 58.907593,332.029358 z" style="fill: url(&quot;#color-0&quot;);">
    <title>M</title>
  </path>
  <path opacity="1.000000" stroke="none" d="M 661.784 486.247 C 661.784 486.247 679.839 467.306 676.105 472.88 C 682.79 478.959 689.419 484.932 695.967 490.978 C 697.415 492.32 698.303 492.388 700.27 491.338 C 703.277 489.738 706.754 488.491 710.185 488.004 C 717.734 486.934 723.755 489.986 729 494.785 C 758.067 521.373 787.262 547.843 816.217 574.531 C 820.222 578.219 823.141 582.886 826.564 587.101 C 826.564 590.279 826.564 593.458 826.276 597.053 C 824.309 600.209 823.158 603.395 820.871 605.606 C 812.938 613.283 804.502 620.533 796.465 628.127 C 792.38 631.983 788.117 635.459 782.584 637.432 C 779.097 637.432 775.612 637.432 771.669 637.169 C 768.015 635.206 764.249 634.027 761.705 631.725 C 730.672 603.657 699.774 575.464 668.948 547.205 C 661 539.923 660.376 530.121 666.637 521.691 C 667.125 521.033 666.941 519.309 666.333 518.727 C 659.712 512.423 652.947 506.248 646.831 500.599" style="transform-box: fill-box; transform-origin: 50% 50%; fill: url(&quot;#color-0&quot;);" transform="matrix(0.139173, 0.990268, -0.990268, 0.139173, 0.000057, -0.000002)">
    <title>magnif</title>
  </path>
  <path opacity="1.000000" stroke="none" d="M 1399.84 256.321 C 1397.09 247.038 1395.14 237.861 1391.53 229.396 C 1382.61 208.495 1365.57 198.855 1343.52 198.293 C 1321.21 197.724 1298.86 197.78 1276.55 198.271 C 1250.95 198.834 1233.75 213.602 1228.26 240.23 C 1225.72 252.534 1224.25 265.279 1224.18 277.834 C 1223.8 347.821 1224 417.812 1224 487.802 C 1224 489.76 1224 491.718 1224 493.918 C 1191.61 493.918 1159.67 493.918 1127.37 493.918 C 1127.37 364.938 1127.37 235.888 1127.37 106.502 C 1159.36 106.502 1191.41 106.502 1223.83 106.502 C 1223.83 115.731 1223.83 124.835 1223.83 134.965 C 1228.06 131.523 1231.52 128.582 1235.1 125.817 C 1253.09 111.958 1274.1 106.361 1296.16 104.044 C 1324.99 101.016 1353.71 102.503 1382.07 108.219 C 1405.24 112.888 1427.03 121.473 1445.81 136.139 C 1465.13 151.228 1478.44 170.876 1486.89 193.872 C 1495.04 216.072 1499.17 239.129 1499.35 262.615 C 1499.91 338.925 1499.83 415.24 1499.99 491.553 C 1499.99 492.199 1499.89 492.845 1499.81 493.824 C 1467.66 493.824 1435.61 493.824 1403 493.824 C 1403 491.859 1403 489.913 1403 487.968 C 1403 433.976 1403.01 379.984 1403 325.992 C 1403 302.866 1403.59 279.712 1399.84 256.321 Z" style="fill: url(&quot;#color-0&quot;);">
    <title>n</title>
  </path>
  <path opacity="1.000000" stroke="none" d="M 1630 269 C 1630 344.115 1630 418.729 1630 493.755 C 1597.71 493.755 1565.87 493.755 1533.76 493.755 C 1533.76 364.743 1533.76 235.858 1533.76 106.569 C 1565.84 106.569 1597.85 106.569 1630 106.569 C 1630 160.669 1630 214.584 1630 269 Z" style="fill: url(&quot;#color-0&quot;);">
    <title>i</title>
  </path>
  <path opacity="1.000000" stroke="none" d="M 1533.51 49 C 1533.51 38.19 1533.51 27.88 1533.51 17.203 C 1565.78 17.203 1597.8 17.203 1630.15 17.203 C 1630.15 36.763 1630.15 56.28 1630.15 76.147 C 1598.12 76.147 1566.26 76.147 1533.51 76.147 C 1533.51 67.302 1533.51 58.401 1533.51 49 Z" style="fill: url(&quot;#color-0&quot;);">
    <title>dot i</title>
  </path>
  <path opacity="1.000000" stroke="none" d="M 1822.8 397.167 C 1825.31 397.118 1827.21 396.856 1827.21 400.032 C 1827.13 431.175 1827.16 462.318 1827.16 493.258 C 1826.62 493.656 1826.36 494.015 1826.1 494.011 C 1799.85 493.651 1773.4 496.547 1747.52 489.949 C 1713.14 481.18 1687.87 461.394 1673.55 428.287 C 1665.8 410.386 1663.07 391.656 1663.05 372.45 C 1662.95 255.127 1663 137.803 1663 20.48 C 1663 19.498 1663 18.516 1663 17.188 C 1695.32 17.188 1727.37 17.188 1759.84 17.188 C 1759.84 46.6 1759.84 76.021 1759.84 105.973 C 1782.31 105.973 1804.36 105.973 1826.79 105.973 C 1826.79 138.538 1826.79 170.574 1826.79 203.127 C 1804.66 203.127 1782.59 203.127 1760 203.127 C 1760 205.419 1760 207.2 1760 208.982 C 1760 265.144 1759.98 321.306 1760.04 377.468 C 1760.05 381.766 1760.48 386.086 1761.04 390.352 C 1761.5 393.884 1763.85 395.989 1767.39 396.373 C 1771.18 396.785 1775.01 397.109 1778.82 397.132 C 1793.32 397.218 1807.82 397.166 1822.8 397.167 Z" style="fill: url(&quot;#color-0&quot;);">
    <title>t</title>
  </path>
  <path opacity="1.000000" stroke="none" d="M 2032.02 102.833 C 2061.49 101.793 2090.06 104.333 2117.86 112.929 C 2164.62 127.385 2199.73 155.654 2220.75 200.437 C 2233.15 226.844 2238.72 254.817 2240.06 283.784 C 2241.64 317.837 2238.63 351.313 2226.93 383.581 C 2209.74 431.015 2178.04 464.51 2130.88 483.168 C 2097.78 496.263 2063.34 499.651 2028.15 498.163 C 2004.05 497.143 1980.48 493.202 1957.84 484.724 C 1915.28 468.784 1883.81 440.659 1864.92 399.015 C 1848.13 361.989 1843.72 322.894 1845.72 282.747 C 1846.81 261.033 1850.33 239.776 1857.46 219.184 C 1873.35 173.289 1903.03 140.069 1947.79 120.554 C 1974.52 108.9 2002.59 103.906 2032.02 102.833 M 2146.87 262.786 C 2143.7 254.44 2141.31 245.686 2137.21 237.826 C 2124.88 214.197 2105.3 199.231 2078.76 196.428 C 2058.81 194.321 2038.51 194.835 2018.39 195.27 C 1985.34 195.985 1961.34 211.66 1946.63 241.331 C 1938.34 258.063 1935.3 276.005 1934.88 294.483 C 1934.37 317.037 1937.32 338.998 1948.14 359.146 C 1962.36 385.641 1984.58 400.535 2014.8 401.901 C 2033.24 402.735 2051.77 402.757 2070.21 402 C 2101.01 400.736 2123.93 385.813 2137.83 358.482 C 2153.2 328.263 2153.89 296.197 2146.87 262.786 Z" style="fill: url(&quot;#color-0&quot;);">
    <title>o2</title>
  </path>
  <path opacity="1.000000" stroke="none" d="M 2146.95 263.196 C 2153.89 296.197 2153.2 328.263 2137.83 358.482 C 2123.93 385.813 2101.01 400.736 2070.21 402 C 2051.77 402.757 2033.24 402.735 2014.8 401.901 C 1984.58 400.535 1962.36 385.641 1948.14 359.146 C 1937.32 338.998 1934.37 317.037 1934.88 294.483 C 1935.3 276.005 1938.34 258.063 1946.63 241.331 C 1961.34 211.66 1985.34 195.985 2018.39 195.27 C 2038.51 194.835 2058.81 194.321 2078.76 196.428 C 2105.3 199.231 2124.88 214.197 2137.21 237.826 C 2141.31 245.686 2143.7 254.44 2146.95 263.196 Z" style="fill: rgb(255, 255, 255);">
    <title>o2 inner</title>
  </path>
  <path opacity="1.000000" stroke="none" d="M 2370.5 426 C 2370.5 448.82 2370.5 471.14 2370.5 493.812 C 2338.15 493.812 2306.1 493.812 2273.78 493.812 C 2273.78 364.735 2273.78 235.822 2273.78 106.537 C 2305.75 106.537 2337.64 106.537 2370.26 106.537 C 2370.26 115.669 2370.26 124.858 2370.26 135.465 C 2398.48 108.149 2432.63 103.035 2468.67 102.644 C 2468.67 134.348 2468.67 165.909 2468.67 197.999 C 2455.68 197.999 2442.73 198.008 2429.79 197.996 C 2419.56 197.986 2409.64 199.336 2400.28 203.855 C 2389.52 209.055 2382.75 217.752 2378.38 228.526 C 2371.79 244.724 2370.65 261.862 2370.57 279.021 C 2370.36 327.847 2370.5 376.674 2370.5 426 Z" style="fill: url(&quot;#color-0&quot;);">
    <title>r</title>
  </path>
  <path opacity="1.000000" stroke="none" d="M 2502.16 353 C 2502.16 240.893 2502.16 129.285 2502.16 17.258 C 2534.45 17.258 2566.48 17.258 2598.82 17.258 C 2598.82 175.896 2598.82 334.597 2598.82 493.689 C 2566.92 493.689 2534.87 493.689 2502.16 493.689 C 2502.16 447.003 2502.16 400.251 2502.16 353 Z" style="fill: url(&quot;#color-0&quot;);">
    <title>l</title>
  </path>
  <path opacity="1.000000" stroke="none" d="M 2964 106.166 C 2977.95 106.166 2991.4 106.166 3005.5 106.166 C 3005.5 108.525 3005.5 110.306 3005.5 112.088 C 3005.5 230.25 3005.57 348.412 3005.44 466.575 C 3005.41 495.496 3000.46 523.547 2987.84 549.84 C 2972.29 582.253 2948.04 605.674 2915.02 620.151 C 2889.29 631.43 2862.24 635.542 2834.47 635.782 C 2808.66 636.005 2782.84 636.422 2757.2 632.5 C 2736.85 629.389 2717.04 624.201 2698.68 614.913 C 2665.43 598.083 2642.64 572.396 2634.61 535.146 C 2633.39 529.479 2632.86 523.653 2632.24 517.875 C 2631.94 515.114 2632.19 512.294 2632.19 509.254 C 2664.45 509.254 2696.52 509.254 2728.42 509.254 C 2728.69 509.598 2728.87 509.723 2728.87 509.847 C 2728.67 528.216 2737.15 533.825 2752.16 535.714 C 2767.97 537.702 2783.99 538.651 2799.93 538.73 C 2821.04 538.836 2842.2 538.189 2863.27 536.746 C 2870.8 536.231 2878.52 533.31 2885.42 529.964 C 2895.48 525.082 2901.16 516.036 2904.24 505.366 C 2907.91 492.639 2908.61 479.647 2908.37 465.54 C 2904.62 468.762 2901.76 471.487 2898.63 473.864 C 2883.35 485.479 2865.93 492.06 2847.1 494.867 C 2808.57 500.614 2770.4 498.473 2732.99 487.552 C 2706.8 479.909 2684.18 466.182 2666.91 444.621 C 2655.14 429.921 2647.19 413.217 2641.95 395.17 C 2634.63 370.026 2632.75 344.276 2632.79 318.236 C 2632.91 249.738 2632.83 181.241 2632.83 112.743 C 2632.83 110.765 2632.83 108.787 2632.83 106.489 C 2665.08 106.489 2696.97 106.489 2729.5 106.489 C 2729.5 108.865 2729.5 110.981 2729.5 113.098 C 2729.5 172.763 2729.45 232.427 2729.52 292.092 C 2729.54 309.561 2730.16 327.009 2735.01 343.973 C 2742.51 370.239 2756.9 390.624 2784.28 398.694 C 2792.77 401.195 2801.94 402.018 2810.84 402.337 C 2824.98 402.843 2839.16 402.579 2853.31 402.105 C 2882.78 401.118 2899.74 387.05 2904.78 357.885 C 2907.4 342.724 2908.57 327.145 2908.66 311.745 C 2909.07 245.416 2908.83 179.084 2908.83 112.753 C 2908.83 110.774 2908.83 108.795 2908.83 106.166 C 2927.29 106.166 2945.39 106.166 2964 106.166 Z" style="fill: url(&quot;#color-0&quot;);">
    <title>y</title>
  </path>
  <path opacity="1.000000" stroke="none" d="M 887.74 103.592 C 917.2 102.492 945.78 105.092 973.58 113.692 C 1020.33 128.092 1055.44 156.392 1076.47 201.192 C 1088.87 227.592 1094.43 255.592 1095.77 284.492 C 1097.35 318.592 1094.34 352.092 1082.65 384.292 C 1065.46 431.792 1033.75 465.292 986.59 483.892 C 953.49 496.992 919.05 500.392 883.86 498.892 C 859.76 497.892 836.187 493.892 813.557 485.492 C 770.987 469.492 739.521 441.392 720.635 399.792 C 703.843 362.692 699.432 323.592 701.436 283.492 C 702.519 261.792 706.045 240.492 713.175 219.892 C 729.066 173.992 758.737 140.792 803.507 121.292 C 830.237 109.592 858.31 104.692 887.74 103.592 M 1002.59 263.492 C 999.42 255.192 997.03 246.392 992.93 238.592 C 980.59 214.892 961.01 199.992 934.47 197.192 C 914.53 195.092 894.23 195.592 874.11 195.992 C 841.047 196.692 817.047 212.392 802.347 242.092 C 794.057 258.792 791.017 276.792 790.597 295.192 C 790.087 317.792 793.037 339.692 803.847 359.892 C 818.077 386.392 840.297 401.292 870.51 402.592 C 888.95 403.492 907.49 403.492 925.93 402.692 C 956.73 401.492 979.64 386.592 993.55 359.192 C 1008.92 328.992 1009.6 296.892 1002.59 263.492 Z" style="fill: url(&quot;#color-0&quot;); transform-box: fill-box; transform-origin: 50% 50%;">
    <title>o1</title>
  </path>
  <path fill-rule="nonzero" d="M 771.776 313.135 C 768.508 313.135 765.861 311.376 765.861 309.204 C 765.861 307.033 768.508 305.273 771.776 305.273 L 821.113 305.273 L 830.268 292.469 C 831.662 290.51 835.177 289.674 838.124 290.597 C 839.475 291.022 840.527 291.77 841.08 292.681 L 852.128 308.63 L 873.924 216.819 C 874.42 214.685 877.428 213.213 880.643 213.55 C 883.383 213.824 885.384 215.322 885.617 217.081 L 885.633 217.081 L 902.245 343.186 L 921.365 265.114 C 921.889 262.98 924.919 261.533 928.135 261.882 C 930.666 262.157 932.559 263.467 932.992 265.052 L 950.506 327.025 L 972.687 292.157 C 973.948 290.161 977.404 289.225 980.403 290.061 C 981.83 290.46 982.894 291.196 983.486 292.058 L 983.498 292.058 L 992.452 305.273 L 1054.53 305.273 C 1057.81 305.273 1060.46 307.033 1060.46 309.204 C 1060.46 311.376 1057.81 313.135 1054.53 313.135 L 988.641 313.135 L 988.641 313.123 C 986.393 313.123 984.24 312.262 983.257 310.814 L 978.28 303.464 L 953.865 341.85 C 953.176 343.111 951.531 344.109 949.402 344.371 C 946.201 344.771 943.118 343.373 942.52 341.239 L 927.6 288.451 L 906.365 375.158 C 906.116 377.03 903.884 378.565 900.985 378.727 C 897.734 378.914 894.867 377.317 894.587 375.145 L 878.056 249.652 L 860.754 322.52 C 860.501 323.818 859.28 324.991 857.358 325.565 C 854.402 326.463 850.903 325.602 849.551 323.643 L 835.529 303.389 L 830.351 310.627 C 829.464 312.137 827.276 313.135 824.838 313.135 L 771.776 313.135 Z" style="fill: url(&quot;#color-0&quot;); vector-effect: non-scaling-stroke; stroke: url(&quot;#color-0&quot;); stroke-width: 4px; stroke-miterlimit: 2.76; stroke-linecap: round; stroke-linejoin: round;"/>
</svg>